<?xml version="1.0" encoding="UTF-8"?>
<svg id="Capa_2" xmlns="http://www.w3.org/2000/svg" xmlns:xlink="http://www.w3.org/1999/xlink" version="1.1" viewBox="0 0 720.6 800">
  <!-- Generator: Adobe Illustrator 30.4.0, SVG Export Plug-In . SVG Version: 2.1.4 Build 226)  -->
  <defs>
    <style>
      .st0 {
        fill: #939393;
      }

      .st1 {
        fill: #f55;
      }

      .st2 {
        fill: #035aa7;
      }

      .st3 {
        fill: url(#Degradado_sin_nombre_5);
      }

      .st4 {
        fill: url(#Degradado_sin_nombre_33);
      }

      .st5 {
        fill: url(#Degradado_sin_nombre_12);
      }

      .st6 {
        fill: url(#Degradado_sin_nombre_14);
      }

      .st7 {
        fill: #fbfbfb;
      }

      .st8 {
        fill: none;
        stroke: url(#Degradado_sin_nombre_19);
        stroke-miterlimit: 10;
        stroke-width: 10px;
      }
    </style>
    <linearGradient id="Degradado_sin_nombre_5" data-name="Degradado sin nombre 5" x1="179.9" y1="322.3" x2="584.6" y2="322.3" gradientUnits="userSpaceOnUse">
      <stop offset="0" stop-color="#065e9d"/>
      <stop offset="1" stop-color="#002c67"/>
    </linearGradient>
    <linearGradient id="Degradado_sin_nombre_14" data-name="Degradado sin nombre 14" x1="175.6" y1="557.4" x2="561.8" y2="557.4" gradientUnits="userSpaceOnUse">
      <stop offset="0" stop-color="#0d8ad3"/>
      <stop offset="1" stop-color="#08366a"/>
    </linearGradient>
    <linearGradient id="Degradado_sin_nombre_12" data-name="Degradado sin nombre 12" x1="260" y1="501.6" x2="434.2" y2="461.5" gradientUnits="userSpaceOnUse">
      <stop offset="0" stop-color="#1889cd"/>
      <stop offset="1" stop-color="#05447e"/>
    </linearGradient>
    <linearGradient id="Degradado_sin_nombre_19" data-name="Degradado sin nombre 19" x1="221.3" y1="518.7" x2="523.4" y2="518.7" gradientUnits="userSpaceOnUse">
      <stop offset="0" stop-color="#1889cd"/>
      <stop offset="1" stop-color="#6caad0"/>
    </linearGradient>
    <linearGradient id="Degradado_sin_nombre_33" data-name="Degradado sin nombre 33" x1="2632.1" y1="557.4" x2="2829.1" y2="557.4" gradientTransform="translate(3004.1418) scale(-1 1)" gradientUnits="userSpaceOnUse">
      <stop offset="0" stop-color="#0d8ad3"/>
      <stop offset="1" stop-color="#fbfbfb"/>
    </linearGradient>
  </defs>
  <path class="st3" d="M476.1,414.3c0,18.1,24.1,45.1,24.1,45.1h-161.4l-7.3,30.9-12-30.9h-139.6c60.5-137.1,200.8-274.7,237-304.1,2.9-2.4,7.3-.3,7.3,3.5v80.2l58.2,28,6.4,20.6,92,47c3.9,2,5,7,2.4,10.4-1,1.9-2.7,5.1-5.4,8.6-3.7,5.1-7.3,8.3-8.3,9.2-4.1,3.8-11,11.8-23.2,30.5-5.1-.3-37.1,0-54.3,0s-16,2.8-16,20.9Z"/>
  <path class="st7" d="M442.2,299.1h36.9s-1.1-10.5-13.8-10.5-23.1,10.5-23.1,10.5Z"/>
  <polygon class="st1" points="396.5 473.1 394.2 478.1 392.7 473.1 396.5 473.1"/>
  <path class="st2" d="M405.5,152.1c-7.9,6.5-18.9,15.8-32,27.5l-3.1-.8c-1.2-.3-2.4-.3-3.6,0l-204.2,53.8c-3.1.8-5.2,3.6-5.2,6.7v233.8c0,45.3,35.3,90.5,105,134.5,49.2,31,97.6,50,99.6,50.8l4,1.6c.8.3,1.6.5,2.5.5v37.3c-.9,0-1.7-.1-2.5-.5l-16.7-6.5c-2.2-.8-53.6-21-105.5-53.8-80.4-50.7-121.2-105.9-121.2-163.9V212.5c0-3.2,2.1-5.9,5.2-6.7l239-63c1.2-.3,2.4-.3,3.5,0l35.1,9.2Z"/>
  <path class="st0" d="M614.6,207.2v266c0,58-40.8,113.1-121.2,163.9-52,32.8-103.4,53-105.6,53.8l-16.7,6.5c-.8.3-1.7.5-2.5.5v-37.3c.9,0,1.7-.2,2.5-.5l4-1.6c2-.8,50.4-19.8,99.6-50.8,69.7-43.9,105-89.2,105-134.5v-105.2c2.3-2.2,4.6-4.8,7-7.6,4.8-5.7,12.1-21.2,11.4-24.3-.4-1.9-1.7-3.6-3.6-4.6l-14.8-8.2v-89.2l-145.8-38.4v-35.9l180.6,47.6Z"/>
  <path class="st6" d="M561.8,473.1c0,93.2-193.1,168.5-193.1,168.5,0,0-193.1-75.2-193.1-168.5h53.6c20.6,57.6,75.7,98.8,140.4,98.8s119.7-41.2,140.4-98.8h51.8Z"/>
  <path class="st5" d="M509.9,473.1c-20.7,57.6-75.7,98.8-140.4,98.8s-119.7-41.2-140.4-98.8h42.7c-.4-2.5-.7-4-.7-4l32.4-53.9s13.7,42.6,13.7,44.5,4.5,7.9,8.3,13.5c2.8,4.1,5.2,7.6,5.2,7.6l2.9-7.6,1.2-3.1,22.7-90.4,18.5,38.1,16.7,55.4,1.5,5,2.3-5,17.6-38.8,28.9,38.8h66.9Z"/>
  <path class="st8" d="M226,462.9c19.2,62.7,77.5,108.2,146.4,108.2s126.8-45.2,146.2-107.6"/>
  <path class="st7" d="M331,519c-3.7,0-7-2.5-8-6.1l-23.3-83.2-12.9,37.7c-1.2,3.4-4.3,5.7-7.9,5.7h-41.9c-4.6,0-8.3-3.7-8.3-8.3s3.7-8.3,8.3-8.3h35.9l18.2-53.3c1.4-4.1,5.2-6.7,9.5-6.6,4.3.1,7.9,3,9.1,7.1l19.4,69.3,21.6-123.7c.8-4.6,4.7-7.9,9.4-8.1,4.7-.1,8.7,3,9.7,7.6l23.7,106.1,13.7-35.5c1.4-3.7,4.9-6.2,8.9-6.2,3.9,0,7.5,2.2,9,5.8l17.2,37.3h105.2c4.6,0,8.3,3.7,8.3,8.3s-3.7,8.3-8.3,8.3h-110.6c-3.3,0-6.2-1.9-7.6-4.8l-12.6-27.4-17.7,45.8c-1.3,3.4-4.7,5.6-8.4,5.3-3.7-.3-6.7-2.9-7.5-6.5l-22.1-98.9-21.9,125.5c-.7,3.8-3.9,6.7-7.8,6.9-.1,0-.3,0-.4,0Z"/>
  <ellipse class="st7" cx="236.1" cy="465.1" rx="24.2" ry="25.2"/>
  <path class="st4" d="M368.7,631.9c-25.4-10-184.6-76.3-184.6-158.8h-9c0,40.4,32.8,81.1,97.6,121,45.9,28.3,92.3,46,96,47.4v-9.7Z"/>
</svg>