<?xml version="1.0" encoding="UTF-8"?>
<svg id="Capa_2" xmlns="http://www.w3.org/2000/svg" xmlns:xlink="http://www.w3.org/1999/xlink" version="1.1" viewBox="0 0 1440 800">
  <!-- Generator: Adobe Illustrator 30.4.0, SVG Export Plug-In . SVG Version: 2.1.4 Build 226)  -->
  <defs>
    <style>
      .st0 {
        fill: #fff;
        font-family: Montserrat-Medium, Montserrat;
        font-size: 52px;
        font-weight: 500;
      }

      .st0, .st1, .st2 {
        isolation: isolate;
      }

      .st3 {
        fill: url(#linear-gradient2);
      }

      .st4 {
        fill: url(#linear-gradient1);
      }

      .st5 {
        fill: url(#linear-gradient4);
      }

      .st6 {
        fill: #939393;
      }

      .st7 {
        fill: url(#linear-gradient);
      }

      .st8 {
        fill: none;
        stroke: url(#linear-gradient3);
        stroke-miterlimit: 10;
        stroke-width: 10px;
      }

      .st9 {
        fill: #f55;
      }

      .st10 {
        fill: #035aa7;
      }

      .st11 {
        fill: #fbfbfb;
      }

      .st12 {
        fill: #939598;
      }

      .st2 {
        fill: #0c63a2;
        font-family: Montserrat-Bold, Montserrat;
        font-size: 132.1px;
        font-weight: 700;
      }
    </style>
    <linearGradient id="linear-gradient" x1="103.5" y1="440.8" x2="325.2" y2="440.8" gradientTransform="translate(0 802.4) scale(1 -1)" gradientUnits="userSpaceOnUse">
      <stop offset="0" stop-color="#065e9d"/>
      <stop offset="1" stop-color="#002c67"/>
    </linearGradient>
    <linearGradient id="linear-gradient1" x1="101" y1="311.9" x2="312.6" y2="311.9" gradientTransform="translate(0 802.4) scale(1 -1)" gradientUnits="userSpaceOnUse">
      <stop offset="0" stop-color="#0d8ad3"/>
      <stop offset="1" stop-color="#08366a"/>
    </linearGradient>
    <linearGradient id="linear-gradient2" x1="147.2" y1="342.4" x2="242.6" y2="364.5" gradientTransform="translate(0 802.4) scale(1 -1)" gradientUnits="userSpaceOnUse">
      <stop offset="0" stop-color="#1889cd"/>
      <stop offset="1" stop-color="#05447e"/>
    </linearGradient>
    <linearGradient id="linear-gradient3" x1="123.9" y1="332.3" x2="293.9" y2="332.3" gradientTransform="translate(0 802.4) scale(1 -1)" gradientUnits="userSpaceOnUse">
      <stop offset="0" stop-color="#1889cd"/>
      <stop offset="1" stop-color="#6caad0"/>
    </linearGradient>
    <linearGradient id="linear-gradient4" x1="3178.3" y1="312" x2="3286.1" y2="312" gradientTransform="translate(3386.917 802.3937) rotate(-180)" gradientUnits="userSpaceOnUse">
      <stop offset="0" stop-color="#0d8ad3"/>
      <stop offset="1" stop-color="#fbfbfb"/>
    </linearGradient>
  </defs>
  <g class="st1">
    <text class="st2" transform="translate(645.8 449.2)"><tspan x="0" y="0">MALINOIS</tspan></text>
  </g>
  <g class="st1">
    <text class="st0" transform="translate(379.3 509)"><tspan x="0" y="0">Monitoring &amp; Predictive Intelligence</tspan></text>
  </g>
  <path class="st7" d="M265.6,412.1c0,10,13.3,24.6,13.3,24.6h-88.4l-4,16.9-6.6-16.9h-76.5c33.1-75.1,110.1-150.6,129.9-166.6,1.6-1.3,4-.1,4,1.9v43.9l31.9,15.4,3.5,11.3,50.3,25.7c2.1,1.1,2.7,3.8,1.3,5.8-.6,1.1-1.5,2.8-2.9,4.7-2,2.8-4,4.6-4.6,5-2.2,2.1-6,6.5-12.7,16.8-2.8-.1-20.3,0-29.8,0s-8.8,1.5-8.8,11.5h0Z"/>
  <path class="st11" d="M247.1,348.9h20.2s-.6-5.8-7.6-5.8-12.7,5.8-12.7,5.8h.1Z"/>
  <polygon class="st9" points="222.1 444.3 220.8 447 220 444.3 222.1 444.3"/>
  <path class="st10" d="M227,268.4c-4.3,3.5-10.3,8.7-17.5,15.1l-1.8-.5c-.6-.1-1.3-.1-2,0l-111.8,29.5c-1.6.5-2.8,2-2.8,3.6v128.1c0,24.8,19.4,49.6,57.5,73.7,27,17,53.5,27.5,54.6,27.8l2.2.8c.5.1.9.2,1.4.2v20.4c-.5,0-.9,0-1.4-.2l-9.2-3.5c-1.2-.5-29.3-11.5-57.9-29.5-44-27.8-66.4-58-66.4-89.8v-142.8c0-1.8,1.2-3.3,2.8-3.6l131-34.5c.6-.1,1.3-.1,1.9,0l19.2,5h.1Z"/>
  <path class="st6" d="M341.6,298.6v145.7c0,31.8-22.3,62-66.4,89.8-28.5,18-56.7,29-57.9,29.5l-9.2,3.5c-.5.2-.9.2-1.4.2v-20.4c.5,0,.9,0,1.4-.2l2.2-.8c1.1-.5,27.6-10.8,54.6-27.8,38.1-24.1,57.5-48.8,57.5-73.7v-57.6c1.3-1.2,2.6-2.6,3.9-4.2,2.6-3.2,6.6-11.6,6.2-13.3-.2-1.1-.9-2-2-2.6l-8.1-4.5v-48.8l-79.9-21v-19.7l98.9,26.1h.1Z"/>
  <path class="st4" d="M312.6,444.3c0,51-105.7,92.4-105.7,92.4,0,0-105.8-41.2-105.8-92.4h29.3c11.3,31.6,41.4,54.1,76.9,54.1s65.6-22.5,77-54.1h28.4Z"/>
  <path class="st3" d="M284.2,444.3c-11.3,31.6-41.5,54.1-77,54.1s-65.6-22.5-76.9-54.1h23.4c-.2-1.4-.4-2.2-.4-2.2l17.7-29.6s7.5,23.4,7.5,24.4,2.5,4.3,4.6,7.4c1.5,2.2,2.8,4.1,2.8,4.1l1.5-4.1.6-1.6,12.4-49.5,10.1,20.9,9.2,30.4.8,2.7,1.3-2.7,9.6-21.2,15.8,21.2h36.8Z"/>
  <path class="st8" d="M128.7,438.7c10.6,34.4,42.5,59.3,80.3,59.3s69.5-24.8,80.1-58.9"/>
  <path class="st11" d="M186.2,469.5c-2,0-3.9-1.4-4.3-3.3l-12.8-45.5-7,20.7c-.6,1.9-2.3,3.1-4.3,3.1h-23c-2.6,0-4.6-2-4.6-4.6s2-4.6,4.6-4.6h19.7l10-29.2c.7-2.2,2.8-3.6,5.2-3.6s4.3,1.6,4.9,3.9l10.7,38,11.9-67.7c.5-2.6,2.6-4.3,5.2-4.5,2.6,0,4.8,1.6,5.3,4.2l13,58.2,7.5-19.5c.8-2,2.7-3.4,4.9-3.4s4.1,1.2,4.9,3.2l9.4,20.4h57.6c2.6,0,4.6,2,4.6,4.6s-2,4.6-4.6,4.6h-60.6c-1.8,0-3.4-1.1-4.1-2.7l-6.9-15-9.7,25.1c-.7,1.9-2.6,3.1-4.6,2.9-2-.1-3.6-1.6-4.1-3.5l-12.1-54.2-12,68.8c-.4,2.1-2.1,3.6-4.2,3.8h-.4Z"/>
  <ellipse class="st11" cx="134.2" cy="439.9" rx="13.3" ry="13.8"/>
  <path class="st5" d="M206.8,531.3c-14-5.5-101.2-41.8-101.2-87.1h-4.9c0,22.2,18,44.5,53.5,66.3,25.1,15.5,50.6,25.2,52.6,25.9v-5.3h0Z"/>
  <path class="st12" d="M385.4,410.1v36c0,1.9,1.5,3.4,3.4,3.4h15.3c1.9,0,3.4-1.5,3.4-3.4v-56.9c0-8.2,6.6-14.8,14.8-14.8h25.7l28.5,69.8c1.2,2.9,4,4.8,7.2,4.8h24.4c3.1,0,5.9-1.9,7-4.7l28.4-67.7c.6-1.3,1.8-2.1,3.2-2.1h6v71.7c0,1.9,1.5,3.4,3.4,3.4h17.3c1.9,0,3.4-1.5,3.4-3.4v-71.7h21.5c3.8,0,6.9-3.1,6.9-6.9v-13.3c0-1.5-1.2-2.7-2.7-2.7h-25.3v-6.5c0-5.3,4.2-9.5,9.5-9.5h15.8c1.5,0,2.7-1.2,2.7-2.7v-16.7c0-1.5-1.2-2.7-2.7-2.7h-20.3c-17.7,0-29,13-29,29v8.9h-19c-3.5.1-6.6,2.2-7.9,5.5l-27.3,66.7c-.8,2.1-3.9,2.1-4.7,0l-28.5-68.8c-.8-1.9-2.7-3.2-4.8-3.2h-36.6c-21.5,0-38.8,17.4-38.8,38.8v19.5h0Z"/>
</svg>