<?xml version="1.0" encoding="UTF-8"?>
<svg id="Capa_2" xmlns="http://www.w3.org/2000/svg" xmlns:xlink="http://www.w3.org/1999/xlink" version="1.1" viewBox="0 0 1440 800">
  <!-- Generator: Adobe Illustrator 30.4.0, SVG Export Plug-In . SVG Version: 2.1.4 Build 226)  -->
  <defs>
    <style>
      .st0 {
        fill: #939393;
      }

      .st1 {
        fill: #f55;
      }

      .st2 {
        fill: #035aa7;
      }

      .st3 {
        fill: #0c63a2;
        font-family: Montserrat-Bold, 'VDHZR C+ Montserrat';
        font-size: 112.6px;
        font-weight: 700;
      }

      .st4 {
        fill: url(#Degradado_sin_nombre_5);
      }

      .st5 {
        fill: url(#Degradado_sin_nombre_33);
      }

      .st6 {
        fill: url(#Degradado_sin_nombre_12);
      }

      .st7 {
        fill: url(#Degradado_sin_nombre_14);
      }

      .st8 {
        fill: #fbfbfb;
      }

      .st9 {
        fill: #939598;
      }

      .st10 {
        fill: none;
        stroke: url(#Degradado_sin_nombre_19);
        stroke-miterlimit: 10;
        stroke-width: 10px;
      }

      .st11 {
        fill: #4d4d4d;
        font-family: Montserrat-Medium, 'VDHZR C+ Montserrat';
        font-size: 44.3px;
        font-weight: 500;
        letter-spacing: 0em;
      }
    </style>
    <linearGradient id="Degradado_sin_nombre_5" data-name="Degradado sin nombre 5" x1="172.1" y1="330.2" x2="361.1" y2="330.2" gradientUnits="userSpaceOnUse">
      <stop offset="0" stop-color="#065e9d"/>
      <stop offset="1" stop-color="#002c67"/>
    </linearGradient>
    <linearGradient id="Degradado_sin_nombre_14" data-name="Degradado sin nombre 14" x1="170.1" y1="439.9" x2="350.4" y2="439.9" gradientUnits="userSpaceOnUse">
      <stop offset="0" stop-color="#0d8ad3"/>
      <stop offset="1" stop-color="#08366a"/>
    </linearGradient>
    <linearGradient id="Degradado_sin_nombre_12" data-name="Degradado sin nombre 12" x1="209.5" y1="413.9" x2="290.8" y2="395.1" gradientUnits="userSpaceOnUse">
      <stop offset="0" stop-color="#1889cd"/>
      <stop offset="1" stop-color="#05447e"/>
    </linearGradient>
    <linearGradient id="Degradado_sin_nombre_19" data-name="Degradado sin nombre 19" x1="188.9" y1="422.8" x2="335.1" y2="422.8" gradientUnits="userSpaceOnUse">
      <stop offset="0" stop-color="#1889cd"/>
      <stop offset="1" stop-color="#6caad0"/>
    </linearGradient>
    <linearGradient id="Degradado_sin_nombre_33" data-name="Degradado sin nombre 33" x1="3385.1" y1="439.9" x2="3477" y2="439.9" gradientTransform="translate(3646.9171) scale(-1 1)" gradientUnits="userSpaceOnUse">
      <stop offset="0" stop-color="#0d8ad3"/>
      <stop offset="1" stop-color="#fbfbfb"/>
    </linearGradient>
  </defs>
  <text class="st3" transform="translate(634.4 404.7)"><tspan x="0" y="0">MALINOIS</tspan></text>
  <text class="st11" transform="translate(407.3 455.7)"><tspan x="0" y="0">Monitoring &amp; Predictive Intelligence</tspan></text>
  <path class="st4" d="M310.4,373.1c0,8.5,11.3,21,11.3,21h-75.3l-3.4,14.4-5.6-14.4h-65.2c28.2-64,93.8-128.3,110.7-142,1.4-1.1,3.4-.1,3.4,1.6v37.4l27.2,13.1,3,9.6,42.9,21.9c1.8.9,2.3,3.2,1.1,4.9-.5.9-1.3,2.4-2.5,4-1.7,2.4-3.4,3.9-3.9,4.3-1.9,1.8-5.1,5.5-10.8,14.3-2.4-.1-17.3,0-25.4,0s-7.5,1.3-7.5,9.8Z"/>
  <path class="st8" d="M294.6,319.3h17.2s-.5-4.9-6.5-4.9-10.8,4.9-10.8,4.9Z"/>
  <polygon class="st1" points="273.3 400.6 272.2 402.9 271.5 400.6 273.3 400.6"/>
  <path class="st2" d="M277.5,250.7c-3.7,3-8.8,7.4-14.9,12.9l-1.5-.4c-.5-.1-1.1-.1-1.7,0l-95.3,25.1c-1.4.4-2.4,1.7-2.4,3.1v109.2c0,21.1,16.5,42.3,49,62.8,23,14.5,45.6,23.4,46.5,23.7l1.9.7c.4.1.8.2,1.2.2v17.4c-.4,0-.8,0-1.2-.2l-7.8-3c-1-.4-25-9.8-49.3-25.1-37.5-23.7-56.6-49.4-56.6-76.5v-121.7c0-1.5,1-2.8,2.4-3.1l111.6-29.4c.5-.1,1.1-.1,1.6,0l16.4,4.3Z"/>
  <path class="st0" d="M375.1,276.4v124.2c0,27.1-19,52.8-56.6,76.5-24.3,15.3-48.3,24.7-49.3,25.1l-7.8,3c-.4.2-.8.2-1.2.2v-17.4c.4,0,.8,0,1.2-.2l1.9-.7c.9-.4,23.5-9.2,46.5-23.7,32.5-20.5,49-41.6,49-62.8v-49.1c1.1-1,2.2-2.2,3.3-3.6,2.2-2.7,5.6-9.9,5.3-11.3-.2-.9-.8-1.7-1.7-2.2l-6.9-3.8v-41.6l-68.1-17.9v-16.8l84.3,22.2Z"/>
  <path class="st7" d="M350.4,400.6c0,43.5-90.1,78.7-90.1,78.7,0,0-90.2-35.1-90.2-78.7h25c9.6,26.9,35.3,46.1,65.5,46.1s55.9-19.2,65.6-46.1h24.2Z"/>
  <path class="st6" d="M326.2,400.6c-9.6,26.9-35.4,46.1-65.6,46.1s-55.9-19.2-65.5-46.1h19.9c-.2-1.2-.3-1.9-.3-1.9l15.1-25.2s6.4,19.9,6.4,20.8,2.1,3.7,3.9,6.3c1.3,1.9,2.4,3.5,2.4,3.5l1.3-3.5.5-1.4,10.6-42.2,8.6,17.8,7.8,25.9.7,2.3,1.1-2.3,8.2-18.1,13.5,18.1h31.2Z"/>
  <path class="st10" d="M193.7,395.8c9,29.3,36.2,50.5,68.4,50.5s59.2-21.1,68.3-50.2"/>
  <path class="st8" d="M242.7,422c-1.7,0-3.3-1.2-3.7-2.8l-10.9-38.8-6,17.6c-.5,1.6-2,2.6-3.7,2.6h-19.6c-2.2,0-3.9-1.7-3.9-3.9s1.7-3.9,3.9-3.9h16.8l8.5-24.9c.6-1.9,2.4-3.1,4.4-3.1,2,0,3.7,1.4,4.2,3.3l9.1,32.4,10.1-57.7c.4-2.2,2.2-3.7,4.4-3.8,2.2,0,4.1,1.4,4.5,3.6l11.1,49.6,6.4-16.6c.7-1.7,2.3-2.9,4.2-2.9,1.8,0,3.5,1,4.2,2.7l8,17.4h49.1c2.2,0,3.9,1.7,3.9,3.9s-1.7,3.9-3.9,3.9h-51.6c-1.5,0-2.9-.9-3.5-2.3l-5.9-12.8-8.3,21.4c-.6,1.6-2.2,2.6-3.9,2.5-1.7-.1-3.1-1.4-3.5-3l-10.3-46.2-10.2,58.6c-.3,1.8-1.8,3.1-3.6,3.2,0,0-.1,0-.2,0Z"/>
  <ellipse class="st8" cx="198.4" cy="396.8" rx="11.3" ry="11.8"/>
  <path class="st5" d="M260.3,474.7c-11.9-4.7-86.2-35.6-86.2-74.2h-4.2c0,18.9,15.3,37.9,45.6,56.5,21.4,13.2,43.1,21.5,44.8,22.1v-4.5Z"/>
  <path class="st9" d="M412.5,371.4v30.7c0,1.6,1.3,2.9,2.9,2.9h13c1.6,0,2.9-1.3,2.9-2.9v-48.5c0-7,5.6-12.6,12.6-12.6h21.9l24.3,59.5c1,2.5,3.4,4.1,6.1,4.1h20.8c2.6,0,5-1.6,6-4l24.2-57.7c.5-1.1,1.5-1.8,2.7-1.8h5.1v61.1c0,1.6,1.3,2.9,2.9,2.9h14.7c1.6,0,2.9-1.3,2.9-2.9v-61.1h18.3c3.2,0,5.9-2.6,5.9-5.9v-11.3c0-1.3-1-2.3-2.3-2.3h-21.6v-5.5c0-4.5,3.6-8.1,8.1-8.1h13.5c1.3,0,2.3-1,2.3-2.3v-14.2c0-1.3-1-2.3-2.3-2.3h-17.3c-15.1,0-24.7,11.1-24.7,24.7v7.6h-16.2c-3,.1-5.6,1.9-6.7,4.7l-23.3,56.8c-.7,1.8-3.3,1.8-4,0l-24.3-58.6c-.7-1.6-2.3-2.7-4.1-2.7h-31.2c-18.3,0-33.1,14.8-33.1,33.1v16.6Z"/>
</svg>