<?xml version="1.0" encoding="UTF-8"?>
<svg id="Capa_2" xmlns="http://www.w3.org/2000/svg" version="1.1" viewBox="0 0 1440 800">
  <!-- Generator: Adobe Illustrator 30.4.0, SVG Export Plug-In . SVG Version: 2.1.4 Build 226)  -->
  <defs>
    <style>
      .st0 {
        fill: #939598;
      }
    </style>
  </defs>
  <path class="st0" d="M172,523v179.8c0,9.4,7.6,17,17,17h76.1c9.4,0,17-7.6,17-17v-284c0-41,32.8-73.8,73.8-73.8h128.2l142.3,348.4c5.9,14.6,19.9,24,35.7,24h121.8c15.2,0,29.3-9.4,35.1-23.4l141.7-337.8c2.9-6.4,8.8-10.5,15.8-10.5h29.9v357.8c0,9.4,7.6,17,17,17h86.1c9.4,0,17-7.6,17-17v-357.8h107.1c18.7,0,34.5-15.2,34.5-34.5v-66.2c0-7.6-5.9-13.5-13.5-13.5h-126.5v-32.2c0-26.3,21.1-47.4,47.4-47.4h79c7.6,0,13.5-5.9,13.5-13.5V55.2c0-7.6-5.9-13.5-13.5-13.5h-101.3c-88.4,0-144.6,65-144.6,144.6v44.5h-94.9c-17.6.6-32.8,11.1-39.2,27.5l-136.4,332.6c-4.1,10.5-19.3,10.5-23.4,0l-142.3-343.1c-4.1-9.4-13.5-15.8-24-15.8h-182.7c-107.1,0-193.8,86.7-193.8,193.8v97.2h0Z"/>
</svg>